<?xml version="1.0" standalone="no"?>
<!DOCTYPE svg PUBLIC "-//W3C//DTD SVG 20010904//EN"
 "http://www.w3.org/TR/2001/REC-SVG-20010904/DTD/svg10.dtd">
<svg version="1.0" xmlns="http://www.w3.org/2000/svg"
 width="1024.000000pt" height="1024.000000pt" viewBox="0 0 1024.000000 1024.000000"
 preserveAspectRatio="xMidYMid meet">
<metadata>
Created by potrace 1.11, written by Peter Selinger 2001-2013
</metadata>
<g transform="translate(0.000000,1024.000000) scale(0.100000,-0.100000)"
fill="#000000" stroke="none">
<path d="M4838 10075 c-2 -2 -48 -6 -103 -9 -55 -4 -113 -8 -130 -10 -16 -2
-59 -7 -95 -11 -101 -10 -166 -19 -290 -41 -14 -2 -41 -7 -60 -10 -70 -10
-402 -88 -450 -104 -14 -5 -72 -23 -130 -41 -381 -117 -799 -316 -1155 -552
-105 -69 -291 -201 -305 -217 -3 -3 -25 -21 -50 -40 -49 -38 -54 -43 -185
-155 -423 -364 -831 -856 -1096 -1320 -67 -116 -219 -415 -219 -429 0 -3 -11
-30 -25 -59 -85 -188 -214 -584 -259 -801 -3 -11 -8 -32 -11 -46 -3 -14 -8
-38 -10 -55 -3 -16 -8 -37 -11 -46 -2 -10 -6 -30 -9 -45 -7 -54 -16 -109 -20
-124 -11 -41 -43 -328 -52 -460 -14 -213 -7 -798 12 -900 2 -13 10 -82 20
-185 2 -16 6 -43 9 -60 2 -16 14 -85 25 -152 28 -160 71 -352 111 -488 18 -61
34 -119 37 -130 3 -11 11 -33 18 -50 8 -16 16 -43 20 -60 4 -16 11 -40 16 -52
5 -13 13 -33 18 -45 129 -332 278 -634 425 -863 18 -27 48 -74 66 -103 18 -30
38 -59 44 -65 6 -7 25 -32 41 -57 47 -70 241 -317 314 -400 189 -215 484 -501
666 -645 28 -22 52 -43 55 -46 3 -3 66 -51 140 -105 266 -196 596 -391 855
-506 33 -14 82 -36 110 -48 247 -110 682 -241 960 -290 33 -5 69 -12 80 -14
11 -2 56 -9 100 -16 44 -6 89 -13 101 -15 11 -2 52 -6 90 -10 38 -4 80 -8 92
-10 166 -26 845 -26 1052 0 14 1 46 5 70 8 25 3 72 9 105 13 33 3 69 8 80 10
26 6 72 13 115 20 216 31 665 149 815 213 11 5 54 21 95 36 332 123 733 342
1065 583 110 81 268 203 285 222 3 3 37 32 75 65 140 119 397 375 526 525 509
587 841 1206 1033 1920 46 173 105 475 121 620 3 30 8 71 10 90 29 218 40 744
21 985 -4 55 -9 127 -12 160 -2 33 -6 71 -9 85 -2 14 -7 48 -10 75 -5 46 -12
90 -21 140 -2 11 -6 36 -8 55 -5 35 -10 63 -23 130 -9 51 -9 51 -33 152 -29
123 -78 308 -89 333 -5 11 -17 47 -27 80 -27 89 -126 346 -177 460 -78 174
-247 486 -304 561 -12 17 -23 34 -23 37 0 6 -90 140 -153 227 -120 164 -304
386 -431 519 -86 89 -277 277 -312 308 -12 10 -48 41 -80 70 -151 131 -389
313 -534 407 -41 27 -86 56 -100 65 -156 106 -520 290 -775 391 -177 70 -586
193 -718 215 -17 3 -64 12 -104 20 -39 8 -89 17 -110 20 -21 3 -60 10 -88 15
-51 9 -76 12 -230 29 -192 21 -240 24 -542 26 -172 1 -313 1 -315 0z m657
-969 c162 -18 209 -24 345 -47 167 -29 163 -28 310 -66 170 -44 294 -83 440
-140 121 -47 420 -191 505 -242 28 -17 57 -34 65 -38 8 -4 80 -51 160 -104
299 -202 545 -419 836 -739 81 -89 239 -298 329 -435 139 -211 245 -411 360
-680 40 -93 145 -426 160 -507 3 -13 13 -63 24 -113 35 -163 42 -203 56 -325
4 -30 8 -68 10 -85 26 -207 26 -841 0 -935 -2 -8 -6 -42 -10 -75 -10 -104 -55
-343 -91 -484 -33 -130 -120 -405 -134 -426 -4 -5 -15 -32 -25 -60 -27 -74
-147 -324 -206 -429 -132 -232 -329 -505 -512 -707 -457 -506 -978 -872 -1557
-1094 -178 -68 -458 -149 -585 -169 -21 -4 -40 -8 -44 -10 -3 -2 -30 -7 -59
-10 -30 -3 -57 -8 -62 -11 -10 -6 -252 -34 -370 -43 -190 -13 -699 -5 -784 13
-12 2 -48 7 -80 10 -33 2 -85 9 -115 15 -31 5 -72 12 -91 15 -239 39 -575 138
-819 242 -829 354 -1571 1045 -2000 1862 -154 294 -285 664 -346 976 -17 87
-46 267 -51 315 -3 30 -7 61 -10 68 -24 77 -24 782 0 932 3 14 7 52 11 85 3
33 13 101 21 150 131 790 479 1475 1053 2070 338 350 700 622 1099 824 66 34
122 61 125 61 3 0 39 15 79 34 133 61 479 177 599 201 9 2 59 13 112 24 95 21
238 45 332 56 28 4 61 8 75 11 14 2 72 7 130 10 58 4 106 8 108 9 5 5 555 -3
607 -9z"/>
<path d="M4891 6704 c-171 -26 -321 -70 -451 -134 -329 -162 -607 -438 -764
-757 -42 -87 -99 -247 -111 -314 -3 -18 -8 -35 -10 -38 -3 -7 -8 -38 -24 -151
-8 -64 -7 -366 2 -405 2 -11 8 -42 12 -70 24 -171 98 -366 204 -540 42 -70 34
-59 115 -160 95 -119 183 -206 306 -300 58 -45 213 -145 225 -145 3 0 32 -13
65 -29 117 -57 316 -113 455 -127 87 -10 308 -11 395 -2 216 22 477 112 650
226 362 236 617 584 713 972 40 159 55 441 33 610 -66 501 -391 958 -856 1203
-151 80 -294 127 -475 158 -98 16 -383 18 -484 3z"/>
</g>
</svg>
